<?xml version="1.0" encoding="utf-8"?>
<!-- Generator: Adobe Illustrator 24.1.2, SVG Export Plug-In . SVG Version: 6.00 Build 0)  -->
<svg version="1.1" id="Livello_1" xmlns="http://www.w3.org/2000/svg" xmlns:xlink="http://www.w3.org/1999/xlink" x="0px" y="0px"
	 viewBox="0 0 336.8 129.2" style="enable-background:new 0 0 336.8 129.2;" xml:space="preserve">
<style type="text/css">
	.st0{fill:#EAB82A;}
</style>
<g>
	<g>
		<path class="st0" d="M56.3,117.9c-25.9-0.2-44-22.1-44-53.3c0-31.2,18.1-53.1,43.9-53.3c25.9,0.2,44,22.1,44,53.3
			C100.2,95.8,82.2,117.8,56.3,117.9 M58.2,0l-1.8,0l-0.2,0L56,0l-2.5,0l0,0c-15.8,0.7-29.2,7.3-38.8,19C5.2,30.6,0,46.8,0,64.6
			c0,17.8,5.2,34,14.7,45.5c9.8,12,23.5,18.6,39.7,19.1l2.2,0l2.5,0l0,0c15.8-0.7,29.1-7.2,38.8-19c9.5-11.6,14.7-27.8,14.7-45.6
			c0-17.8-5.2-34-14.7-45.6C88.1,7.1,74.3,0.5,58.2,0"/>
	</g>
	<polygon class="st0" points="215,2.8 175.4,110.8 136.1,2.8 123,2.8 168.5,126.4 182.3,126.4 228.1,2.8 	"/>
	<path class="st0" d="M294,58l-2.9-0.6c-18.3-3.7-35.6-7.2-35.6-23.4c0-16.8,16.3-22.7,30.2-22.7c22,0,35,10.2,35.7,28l0.1,2.4
		l12.4,0l-0.1-2.6C332.7,14.2,315.1,0,285.7,0c-21.2,0-42.6,10.5-42.6,34.1c0,25.3,23.6,30.1,42.6,34l1.9,0.4
		c18.9,3.8,36.8,7.5,36.8,24.9c0,19.4-20.2,24.6-32.1,24.6c-14.8,0-26.6-4-33.4-11.2c-5.2-5.5-7.5-12.9-7-21.9l0.2-2.6h-12.5l0,2.5
		c-0.1,12.8,3.6,23.1,11,30.6c9,9.1,23.4,13.9,41.7,13.9c10.7,0,21.3-2.9,29.1-7.9c10-6.4,15.3-16.1,15.3-28
		C336.8,66.7,312.1,61.7,294,58"/>
</g>
</svg>
